<svg xmlns="http://www.w3.org/2000/svg" viewBox="0 0 245 40">
        <defs>
          <clipPath id="squareClip">
            <rect x="0" y="0" width="40" height="40" rx="15" />
          </clipPath>
        </defs>
        <g clip-path="url(#squareClip)">
          <rect x="0" y="0" width="40" height="40" fill="#D1F1FF" />
          <g transform="translate(20 20)">
            <g transform="scale(0.08)">
              <g transform="translate(-128 -128)">
                <path d="M216,40H40A16,16,0,0,0,24,56V200a16,16,0,0,0,16,16H216a16,16,0,0,0,16-16V56A16,16,0,0,0,216,40ZM88,155.84c.29,14.26.41,20.16,16,20.16a8,8,0,0,1,0,16c-31.27,0-31.72-22.43-32-35.84C71.71,141.9,71.59,136,56,136a8,8,0,0,1,0-16c15.59,0,15.71-5.9,16-20.16C72.28,86.43,72.73,64,104,64a8,8,0,0,1,0,16c-15.59,0-15.71,5.9-16,20.16-.17,8.31-.41,20.09-8,27.84C87.59,135.75,87.83,147.53,88,155.84ZM200,136c-15.59,0-15.71,5.9-16,20.16-.28,13.41-.73,35.84-32,35.84a8,8,0,0,1,0-16c15.59,0,15.71-5.9,16-20.16.17-8.31.41-20.09,8-27.84-7.6-7.75-7.84-19.53-8-27.84C167.71,85.9,167.59,80,152,80a8,8,0,0,1,0-16c31.27,0,31.72,22.43,32,35.84.29,14.26.41,20.16,16,20.16a8,8,0,0,1,0,16Z" fill="#0C87EB"></path>
              </g>
            </g>
          </g>
        </g>
        <path fill="#0C87EB" d="M49.34 29L46.61 29L46.61 12.20L49.34 12.20L57.58 24.51L57.58 12.20L60.31 12.20L60.31 29L57.58 29L49.34 16.71L49.34 29ZM63.43 15.20L63.43 15.20Q62.69 15.20 62.16 14.67Q61.63 14.14 61.63 13.40L61.63 13.40Q61.63 12.66 62.16 12.14Q62.69 11.62 63.43 11.62L63.43 11.62Q64.18 11.62 64.70 12.14Q65.23 12.66 65.23 13.40L65.23 13.40Q65.23 14.14 64.70 14.67Q64.18 15.20 63.43 15.20ZM64.80 29L62.06 29L62.06 17.10L64.80 17.10L64.80 29ZM68.04 29L65.14 29L69.14 23.02L65.11 17.10L68.14 17.10L70.90 21.18L73.49 17.10L76.39 17.10L72.38 23.02L76.42 29L73.42 29L70.63 24.90L68.04 29ZM81.74 29.29L81.74 29.29Q79.99 29.29 78.60 28.52Q77.21 27.75 76.40 26.35Q75.60 24.94 75.60 23.05L75.60 23.05Q75.60 21.10 76.44 19.71Q77.28 18.32 78.70 17.56Q80.11 16.81 81.84 16.81L81.84 16.81Q83.59 16.81 85.00 17.56Q86.40 18.32 87.23 19.71Q88.06 21.10 88.06 23.05L88.06 23.05Q88.06 24.85 87.25 26.26Q86.45 27.68 85.02 28.48Q83.59 29.29 81.74 29.29ZM81.77 26.94L81.77 26.94Q82.80 26.94 83.58 26.42Q84.36 25.90 84.82 25.02Q85.27 24.13 85.27 23L85.27 23Q85.27 21.82 84.82 20.96Q84.36 20.10 83.58 19.63Q82.80 19.16 81.79 19.16L81.79 19.16Q80.74 19.16 79.96 19.66Q79.18 20.17 78.77 21.04Q78.36 21.92 78.36 23.05L78.36 23.05Q78.36 24.27 78.83 25.15Q79.30 26.02 80.08 26.48Q80.86 26.94 81.77 26.94ZM93.74 29.29L93.74 29.29Q92.38 29.29 91.21 28.80Q90.05 28.30 89.32 27.39Q88.58 26.48 88.49 25.26L88.49 25.26L91.22 25.26Q91.37 26.10 92.05 26.61Q92.74 27.13 93.72 27.13L93.72 27.13Q94.61 27.13 95.20 26.74Q95.78 26.36 95.78 25.69L95.78 25.69Q95.78 25.11 95.38 24.79Q94.97 24.46 94.37 24.28Q93.77 24.10 93.12 23.96L93.12 23.96Q91.99 23.70 91.02 23.31Q90.05 22.93 89.45 22.23Q88.85 21.54 88.85 20.41L88.85 20.41Q88.85 19.28 89.47 18.48Q90.10 17.67 91.14 17.24Q92.18 16.81 93.48 16.81L93.48 16.81Q95.45 16.81 96.76 17.79Q98.06 18.78 98.21 20.67L98.21 20.67L95.62 20.67Q95.52 19.86 94.93 19.42Q94.34 18.99 93.41 18.99L93.41 18.99Q92.59 18.99 92.05 19.30Q91.51 19.62 91.51 20.31L91.51 20.31Q91.51 20.79 91.91 21.10Q92.30 21.42 92.92 21.62Q93.53 21.82 94.13 21.97L94.13 21.97Q95.35 22.26 96.31 22.64Q97.27 23.02 97.84 23.72Q98.40 24.42 98.42 25.62L98.42 25.62Q98.42 26.77 97.80 27.58Q97.18 28.40 96.12 28.84Q95.06 29.29 93.74 29.29ZM107.78 23.19L99.43 23.19L99.43 20.91L107.78 20.91L107.78 23.19ZM117.07 29.29L117.07 29.29Q114.50 29.29 112.68 28.16Q110.86 27.03 109.91 25.06Q108.96 23.10 108.96 20.62L108.96 20.62Q108.96 18.13 109.90 16.16Q110.83 14.19 112.64 13.05Q114.46 11.91 117.07 11.91L117.07 11.91Q120.05 11.91 121.94 13.38Q123.84 14.84 124.32 17.46L124.32 17.46L121.32 17.46Q120.98 16.04 119.90 15.20Q118.82 14.36 117.05 14.36L117.05 14.36Q115.34 14.36 114.17 15.15Q112.99 15.94 112.37 17.34Q111.74 18.73 111.74 20.62L111.74 20.62Q111.74 22.50 112.37 23.90Q112.99 25.30 114.18 26.08Q115.37 26.86 117.05 26.86L117.05 26.86Q118.82 26.86 119.90 26.06Q120.98 25.26 121.32 23.89L121.32 23.89L124.32 23.89Q123.84 26.43 121.94 27.86Q120.05 29.29 117.07 29.29ZM131.14 29.29L131.14 29.29Q129.38 29.29 127.99 28.52Q126.60 27.75 125.80 26.35Q124.99 24.94 124.99 23.05L124.99 23.05Q124.99 21.10 125.83 19.71Q126.67 18.32 128.09 17.56Q129.50 16.81 131.23 16.81L131.23 16.81Q132.98 16.81 134.39 17.56Q135.79 18.32 136.62 19.71Q137.45 21.10 137.45 23.05L137.45 23.05Q137.45 24.85 136.64 26.26Q135.84 27.68 134.41 28.48Q132.98 29.29 131.14 29.29ZM131.16 26.94L131.16 26.94Q132.19 26.94 132.97 26.42Q133.75 25.90 134.21 25.02Q134.66 24.13 134.66 23L134.66 23Q134.66 21.82 134.21 20.96Q133.75 20.10 132.97 19.63Q132.19 19.16 131.18 19.16L131.18 19.16Q130.13 19.16 129.35 19.66Q128.57 20.17 128.16 21.04Q127.75 21.92 127.75 23.05L127.75 23.05Q127.75 24.27 128.22 25.15Q128.69 26.02 129.47 26.48Q130.25 26.94 131.16 26.94ZM141.07 29L138.36 29L138.36 17.10L141 17.10L141.05 18.73Q141.65 17.79 142.70 17.30Q143.76 16.81 144.91 16.81L144.91 16.81Q147 16.81 148.30 18.13Q149.59 19.45 149.59 22.02L149.59 22.02L149.59 29L146.90 29L146.90 22.35Q146.90 20.84 146.18 19.98Q145.46 19.11 144.07 19.11L144.07 19.11Q142.68 19.11 141.88 20.04Q141.07 20.96 141.07 22.54L141.07 22.54L141.07 29ZM153.89 29L151.18 29L151.18 19.38L149.64 19.38L149.64 17.10L151.18 17.10L151.18 15.97Q151.18 13.95 152.18 13.08Q153.19 12.20 154.99 12.20L154.99 12.20L156.07 12.20L156.07 14.53L155.42 14.53Q154.58 14.53 154.24 14.85Q153.89 15.18 153.89 15.97L153.89 15.97L153.89 17.10L156.29 17.10L156.29 19.38L153.89 19.38L153.89 29ZM158.59 15.20L158.59 15.20Q157.85 15.20 157.32 14.67Q156.79 14.14 156.79 13.40L156.79 13.40Q156.79 12.66 157.32 12.14Q157.85 11.62 158.59 11.62L158.59 11.62Q159.34 11.62 159.86 12.14Q160.39 12.66 160.39 13.40L160.39 13.40Q160.39 14.14 159.86 14.67Q159.34 15.20 158.59 15.20ZM159.96 29L157.22 29L157.22 17.10L159.96 17.10L159.96 29ZM166.44 34.57L166.44 34.57Q164.88 34.57 163.58 34.21Q162.29 33.85 161.51 33.03Q160.73 32.22 160.73 30.87L160.73 30.87Q160.73 29.98 161.12 29.36Q161.52 28.74 162.26 28.33L162.26 28.33Q161.66 27.97 161.33 27.43Q160.99 26.89 160.99 26.19L160.99 26.19Q160.99 24.66 162.43 23.79L162.43 23.79Q161.90 23.24 161.63 22.54Q161.35 21.85 161.35 21.06L161.35 21.06Q161.35 19.74 161.96 18.79Q162.58 17.84 163.67 17.32Q164.76 16.81 166.18 16.81L166.18 16.81Q167.18 16.81 168.07 17.10L168.07 17.10L172.27 17.10L172.27 19.21L170.54 19.21Q170.74 19.64 170.87 20.10Q171.00 20.55 171.00 21.06L171.00 21.06Q171.00 22.33 170.35 23.29Q169.70 24.25 168.62 24.76Q167.54 25.28 166.18 25.28L166.18 25.28Q165.55 25.28 165.02 25.16Q164.50 25.04 163.99 24.80L163.99 24.80Q163.44 25.09 163.44 25.69L163.44 25.69Q163.44 26.79 165.29 26.79L165.29 26.79L167.40 26.79Q168.82 26.79 169.84 27.16Q170.86 27.54 171.41 28.36Q171.96 29.19 171.96 30.49L171.96 30.49Q171.96 31.78 171.20 32.70Q170.45 33.61 169.19 34.09Q167.93 34.57 166.44 34.57ZM166.42 32.41L166.42 32.41Q167.66 32.41 168.54 31.98Q169.42 31.54 169.42 30.68L169.42 30.68Q169.42 29.05 167.26 29.05L167.26 29.05L165.43 29.05Q164.40 29.05 163.84 29.47Q163.27 29.89 163.27 30.68L163.27 30.68Q163.27 31.33 163.70 31.70Q164.14 32.07 164.86 32.24Q165.58 32.41 166.42 32.41ZM166.13 23.12L166.13 23.12Q167.16 23.12 167.82 22.54Q168.48 21.97 168.48 21.06L168.48 21.06Q168.48 20.14 167.82 19.56Q167.16 18.97 166.13 18.97L166.13 18.97Q165.12 18.97 164.48 19.56Q163.85 20.14 163.85 21.06L163.85 21.06Q163.85 21.97 164.46 22.54Q165.07 23.12 166.13 23.12ZM177.60 29.29L177.60 29.29Q176.23 29.29 175.07 28.80Q173.90 28.30 173.17 27.39Q172.44 26.48 172.34 25.26L172.34 25.26L175.08 25.26Q175.22 26.10 175.91 26.61Q176.59 27.13 177.58 27.13L177.58 27.13Q178.46 27.13 179.05 26.74Q179.64 26.36 179.64 25.69L179.64 25.69Q179.64 25.11 179.23 24.79Q178.82 24.46 178.22 24.28Q177.62 24.10 176.98 23.96L176.98 23.96Q175.85 23.70 174.88 23.31Q173.90 22.93 173.30 22.23Q172.70 21.54 172.70 20.41L172.70 20.41Q172.70 19.28 173.33 18.48Q173.95 17.67 175.00 17.24Q176.04 16.81 177.34 16.81L177.34 16.81Q179.30 16.81 180.61 17.79Q181.92 18.78 182.06 20.67L182.06 20.67L179.47 20.67Q179.38 19.86 178.79 19.42Q178.20 18.99 177.26 18.99L177.26 18.99Q176.45 18.99 175.91 19.30Q175.37 19.62 175.37 20.31L175.37 20.31Q175.37 20.79 175.76 21.10Q176.16 21.42 176.77 21.62Q177.38 21.82 177.98 21.97L177.98 21.97Q179.21 22.26 180.17 22.64Q181.13 23.02 181.69 23.72Q182.26 24.42 182.28 25.62L182.28 25.62Q182.28 26.77 181.66 27.58Q181.03 28.40 179.98 28.84Q178.92 29.29 177.60 29.29Z"/>
      </svg>